<mxfile host="www.draw.io" modified="2020-01-07T06:35:34.992Z" agent="Mozilla/5.0 (Macintosh; Intel Mac OS X 10_14_6) AppleWebKit/537.36 (KHTML, like Gecko) Chrome/79.0.3945.36 Safari/537.36 Edg/79.0.309.25" etag="YbLqCl6W92WmZ6rFBuu8" version="12.4.9" type="github">
  <diagram id="kHLXZK3vsKV-nRDZBLhe" name="第 1 页">
    <mxGraphModel dx="1096" dy="739" grid="1" gridSize="10" guides="1" tooltips="1" connect="1" arrows="1" fold="1" page="1" pageScale="1" pageWidth="3300" pageHeight="4681" math="0" shadow="0">
      <root>
        <mxCell id="0"/>
        <mxCell id="1" parent="0"/>
        <mxCell id="re5-jsA7W_6qkic04XHl-118" style="edgeStyle=none;rounded=0;orthogonalLoop=1;jettySize=auto;html=1;exitX=0;exitY=0.5;exitDx=0;exitDy=0;entryX=1;entryY=0.5;entryDx=0;entryDy=0;startArrow=open;startFill=0;endArrow=diamond;endFill=0;" edge="1" parent="1" source="re5-jsA7W_6qkic04XHl-2" target="re5-jsA7W_6qkic04XHl-115">
          <mxGeometry relative="1" as="geometry"/>
        </mxCell>
        <mxCell id="re5-jsA7W_6qkic04XHl-129" style="edgeStyle=none;rounded=0;orthogonalLoop=1;jettySize=auto;html=1;exitX=0.5;exitY=0;exitDx=0;exitDy=0;startArrow=none;startFill=0;endArrow=block;endFill=0;" edge="1" parent="1" source="re5-jsA7W_6qkic04XHl-1" target="re5-jsA7W_6qkic04XHl-128">
          <mxGeometry relative="1" as="geometry"/>
        </mxCell>
        <mxCell id="re5-jsA7W_6qkic04XHl-1" value="AtomComponent" style="swimlane;fontStyle=1;align=center;verticalAlign=top;childLayout=stackLayout;horizontal=1;startSize=26;horizontalStack=0;resizeParent=1;resizeParentMax=0;resizeLast=0;collapsible=1;marginBottom=0;" vertex="1" parent="1">
          <mxGeometry x="1430" y="1509.67" width="160" height="230" as="geometry"/>
        </mxCell>
        <mxCell id="re5-jsA7W_6qkic04XHl-2" value="+ id&#xa;+ props&#xa;+ code_tree&#xa;+ render_tree&#xa;+ operation_tree&#xa;+ frontend_method&#xa;+ backend_method&#xa;+ dependency" style="text;strokeColor=none;fillColor=none;align=left;verticalAlign=top;spacingLeft=4;spacingRight=4;overflow=hidden;rotatable=0;points=[[0,0.5],[1,0.5]];portConstraint=eastwest;" vertex="1" parent="re5-jsA7W_6qkic04XHl-1">
          <mxGeometry y="26" width="160" height="124" as="geometry"/>
        </mxCell>
        <mxCell id="re5-jsA7W_6qkic04XHl-3" value="" style="line;strokeWidth=1;fillColor=none;align=left;verticalAlign=middle;spacingTop=-1;spacingLeft=3;spacingRight=3;rotatable=0;labelPosition=right;points=[];portConstraint=eastwest;" vertex="1" parent="re5-jsA7W_6qkic04XHl-1">
          <mxGeometry y="150" width="160" height="8" as="geometry"/>
        </mxCell>
        <mxCell id="re5-jsA7W_6qkic04XHl-4" value="+ use()&#xa;+ add()&#xa;+ update()&#xa;+ delete()" style="text;strokeColor=none;fillColor=none;align=left;verticalAlign=top;spacingLeft=4;spacingRight=4;overflow=hidden;rotatable=0;points=[[0,0.5],[1,0.5]];portConstraint=eastwest;" vertex="1" parent="re5-jsA7W_6qkic04XHl-1">
          <mxGeometry y="158" width="160" height="72" as="geometry"/>
        </mxCell>
        <mxCell id="re5-jsA7W_6qkic04XHl-37" style="rounded=0;orthogonalLoop=1;jettySize=auto;html=1;exitX=0.5;exitY=0;exitDx=0;exitDy=0;entryX=0.5;entryY=1;entryDx=0;entryDy=0;entryPerimeter=0;endArrow=diamondThin;endFill=0;startArrow=open;startFill=0;" edge="1" parent="1" source="re5-jsA7W_6qkic04XHl-5" target="re5-jsA7W_6qkic04XHl-4">
          <mxGeometry relative="1" as="geometry"/>
        </mxCell>
        <mxCell id="re5-jsA7W_6qkic04XHl-5" value="RenderTree" style="swimlane;fontStyle=1;align=center;verticalAlign=top;childLayout=stackLayout;horizontal=1;startSize=26;horizontalStack=0;resizeParent=1;resizeParentMax=0;resizeLast=0;collapsible=1;marginBottom=0;" vertex="1" parent="1">
          <mxGeometry x="830" y="1899.67" width="160" height="200" as="geometry"/>
        </mxCell>
        <mxCell id="re5-jsA7W_6qkic04XHl-6" value="+ id: number&#xa;+ parentId: number;&#xa;+ tag: string;&#xa;+ $complexInfo?: object;&#xa;+ data: ComponentData;&#xa;+ children: ComponentTree[];" style="text;strokeColor=none;fillColor=none;align=left;verticalAlign=top;spacingLeft=4;spacingRight=4;overflow=hidden;rotatable=0;points=[[0,0.5],[1,0.5]];portConstraint=eastwest;" vertex="1" parent="re5-jsA7W_6qkic04XHl-5">
          <mxGeometry y="26" width="160" height="94" as="geometry"/>
        </mxCell>
        <mxCell id="re5-jsA7W_6qkic04XHl-7" value="" style="line;strokeWidth=1;fillColor=none;align=left;verticalAlign=middle;spacingTop=-1;spacingLeft=3;spacingRight=3;rotatable=0;labelPosition=right;points=[];portConstraint=eastwest;" vertex="1" parent="re5-jsA7W_6qkic04XHl-5">
          <mxGeometry y="120" width="160" height="8" as="geometry"/>
        </mxCell>
        <mxCell id="re5-jsA7W_6qkic04XHl-8" value="+ use()&#xa;+ add()&#xa;+ update()&#xa;+ delete()" style="text;strokeColor=none;fillColor=none;align=left;verticalAlign=top;spacingLeft=4;spacingRight=4;overflow=hidden;rotatable=0;points=[[0,0.5],[1,0.5]];portConstraint=eastwest;" vertex="1" parent="re5-jsA7W_6qkic04XHl-5">
          <mxGeometry y="128" width="160" height="72" as="geometry"/>
        </mxCell>
        <mxCell id="re5-jsA7W_6qkic04XHl-38" style="edgeStyle=none;rounded=0;orthogonalLoop=1;jettySize=auto;html=1;exitX=0.5;exitY=0;exitDx=0;exitDy=0;entryX=0.506;entryY=1;entryDx=0;entryDy=0;entryPerimeter=0;startArrow=open;startFill=0;endArrow=diamondThin;endFill=0;" edge="1" parent="1" source="re5-jsA7W_6qkic04XHl-9" target="re5-jsA7W_6qkic04XHl-4">
          <mxGeometry relative="1" as="geometry"/>
        </mxCell>
        <mxCell id="re5-jsA7W_6qkic04XHl-9" value="CodeTree" style="swimlane;fontStyle=1;align=center;verticalAlign=top;childLayout=stackLayout;horizontal=1;startSize=26;horizontalStack=0;resizeParent=1;resizeParentMax=0;resizeLast=0;collapsible=1;marginBottom=0;" vertex="1" parent="1">
          <mxGeometry x="1030" y="1899.67" width="160" height="200" as="geometry"/>
        </mxCell>
        <mxCell id="re5-jsA7W_6qkic04XHl-10" value="+ id: number&#xa;+ parentId: number;&#xa;+ tag: string;&#xa;+ $complexInfo?: object;&#xa;+ data: ComponentData;&#xa;+ children: ComponentTree[];" style="text;strokeColor=none;fillColor=none;align=left;verticalAlign=top;spacingLeft=4;spacingRight=4;overflow=hidden;rotatable=0;points=[[0,0.5],[1,0.5]];portConstraint=eastwest;" vertex="1" parent="re5-jsA7W_6qkic04XHl-9">
          <mxGeometry y="26" width="160" height="94" as="geometry"/>
        </mxCell>
        <mxCell id="re5-jsA7W_6qkic04XHl-11" value="" style="line;strokeWidth=1;fillColor=none;align=left;verticalAlign=middle;spacingTop=-1;spacingLeft=3;spacingRight=3;rotatable=0;labelPosition=right;points=[];portConstraint=eastwest;" vertex="1" parent="re5-jsA7W_6qkic04XHl-9">
          <mxGeometry y="120" width="160" height="8" as="geometry"/>
        </mxCell>
        <mxCell id="re5-jsA7W_6qkic04XHl-12" value="+ use()&#xa;+ add()&#xa;+ update()&#xa;+ delete()" style="text;strokeColor=none;fillColor=none;align=left;verticalAlign=top;spacingLeft=4;spacingRight=4;overflow=hidden;rotatable=0;points=[[0,0.5],[1,0.5]];portConstraint=eastwest;" vertex="1" parent="re5-jsA7W_6qkic04XHl-9">
          <mxGeometry y="128" width="160" height="72" as="geometry"/>
        </mxCell>
        <mxCell id="re5-jsA7W_6qkic04XHl-39" style="edgeStyle=none;rounded=0;orthogonalLoop=1;jettySize=auto;html=1;exitX=0.5;exitY=0;exitDx=0;exitDy=0;entryX=0.506;entryY=1.014;entryDx=0;entryDy=0;entryPerimeter=0;startArrow=open;startFill=0;endArrow=diamondThin;endFill=0;" edge="1" parent="1" source="re5-jsA7W_6qkic04XHl-13" target="re5-jsA7W_6qkic04XHl-4">
          <mxGeometry relative="1" as="geometry"/>
        </mxCell>
        <mxCell id="re5-jsA7W_6qkic04XHl-13" value="OperationTree" style="swimlane;fontStyle=1;align=center;verticalAlign=top;childLayout=stackLayout;horizontal=1;startSize=26;horizontalStack=0;resizeParent=1;resizeParentMax=0;resizeLast=0;collapsible=1;marginBottom=0;" vertex="1" parent="1">
          <mxGeometry x="1230" y="1899.67" width="160" height="200" as="geometry"/>
        </mxCell>
        <mxCell id="re5-jsA7W_6qkic04XHl-14" value="+ id: number&#xa;+ parentId: number;&#xa;+ tag: string;&#xa;+ $complexInfo?: object;&#xa;+ data: ComponentData;&#xa;+ children: ComponentTree[];" style="text;strokeColor=none;fillColor=none;align=left;verticalAlign=top;spacingLeft=4;spacingRight=4;overflow=hidden;rotatable=0;points=[[0,0.5],[1,0.5]];portConstraint=eastwest;" vertex="1" parent="re5-jsA7W_6qkic04XHl-13">
          <mxGeometry y="26" width="160" height="94" as="geometry"/>
        </mxCell>
        <mxCell id="re5-jsA7W_6qkic04XHl-15" value="" style="line;strokeWidth=1;fillColor=none;align=left;verticalAlign=middle;spacingTop=-1;spacingLeft=3;spacingRight=3;rotatable=0;labelPosition=right;points=[];portConstraint=eastwest;" vertex="1" parent="re5-jsA7W_6qkic04XHl-13">
          <mxGeometry y="120" width="160" height="8" as="geometry"/>
        </mxCell>
        <mxCell id="re5-jsA7W_6qkic04XHl-16" value="+ use()&#xa;+ add()&#xa;+ update()&#xa;+ delete()" style="text;strokeColor=none;fillColor=none;align=left;verticalAlign=top;spacingLeft=4;spacingRight=4;overflow=hidden;rotatable=0;points=[[0,0.5],[1,0.5]];portConstraint=eastwest;" vertex="1" parent="re5-jsA7W_6qkic04XHl-13">
          <mxGeometry y="128" width="160" height="72" as="geometry"/>
        </mxCell>
        <mxCell id="re5-jsA7W_6qkic04XHl-40" style="edgeStyle=none;rounded=0;orthogonalLoop=1;jettySize=auto;html=1;exitX=0.5;exitY=0;exitDx=0;exitDy=0;startArrow=open;startFill=0;endArrow=diamondThin;endFill=0;" edge="1" parent="1" source="re5-jsA7W_6qkic04XHl-17" target="re5-jsA7W_6qkic04XHl-4">
          <mxGeometry relative="1" as="geometry"/>
        </mxCell>
        <mxCell id="re5-jsA7W_6qkic04XHl-17" value="FrontendMethod" style="swimlane;fontStyle=1;align=center;verticalAlign=top;childLayout=stackLayout;horizontal=1;startSize=26;horizontalStack=0;resizeParent=1;resizeParentMax=0;resizeLast=0;collapsible=1;marginBottom=0;" vertex="1" parent="1">
          <mxGeometry x="1430" y="1899.67" width="160" height="190" as="geometry"/>
        </mxCell>
        <mxCell id="re5-jsA7W_6qkic04XHl-18" value="+ id:number&#xa;+ name:string&#xa;+ props:json&#xa;+ gluecode:json&#xa;+ dependency:json" style="text;strokeColor=none;fillColor=none;align=left;verticalAlign=top;spacingLeft=4;spacingRight=4;overflow=hidden;rotatable=0;points=[[0,0.5],[1,0.5]];portConstraint=eastwest;" vertex="1" parent="re5-jsA7W_6qkic04XHl-17">
          <mxGeometry y="26" width="160" height="84" as="geometry"/>
        </mxCell>
        <mxCell id="re5-jsA7W_6qkic04XHl-19" value="" style="line;strokeWidth=1;fillColor=none;align=left;verticalAlign=middle;spacingTop=-1;spacingLeft=3;spacingRight=3;rotatable=0;labelPosition=right;points=[];portConstraint=eastwest;" vertex="1" parent="re5-jsA7W_6qkic04XHl-17">
          <mxGeometry y="110" width="160" height="8" as="geometry"/>
        </mxCell>
        <mxCell id="re5-jsA7W_6qkic04XHl-20" value="+ use()&#xa;+ add()&#xa;+ update()&#xa;+ delete()" style="text;strokeColor=none;fillColor=none;align=left;verticalAlign=top;spacingLeft=4;spacingRight=4;overflow=hidden;rotatable=0;points=[[0,0.5],[1,0.5]];portConstraint=eastwest;" vertex="1" parent="re5-jsA7W_6qkic04XHl-17">
          <mxGeometry y="118" width="160" height="72" as="geometry"/>
        </mxCell>
        <mxCell id="re5-jsA7W_6qkic04XHl-41" style="edgeStyle=none;rounded=0;orthogonalLoop=1;jettySize=auto;html=1;exitX=0.5;exitY=0;exitDx=0;exitDy=0;startArrow=open;startFill=0;endArrow=diamondThin;endFill=0;" edge="1" parent="1" source="re5-jsA7W_6qkic04XHl-25">
          <mxGeometry relative="1" as="geometry">
            <mxPoint x="1510" y="1739.67" as="targetPoint"/>
          </mxGeometry>
        </mxCell>
        <mxCell id="re5-jsA7W_6qkic04XHl-25" value="BackendMethod" style="swimlane;fontStyle=1;align=center;verticalAlign=top;childLayout=stackLayout;horizontal=1;startSize=26;horizontalStack=0;resizeParent=1;resizeParentMax=0;resizeLast=0;collapsible=1;marginBottom=0;" vertex="1" parent="1">
          <mxGeometry x="1630" y="1899.67" width="160" height="190" as="geometry"/>
        </mxCell>
        <mxCell id="re5-jsA7W_6qkic04XHl-26" value="+ id:number&#xa;+ name:string&#xa;+ props:json&#xa;+ gluecode:json&#xa;+ dependency:json" style="text;strokeColor=none;fillColor=none;align=left;verticalAlign=top;spacingLeft=4;spacingRight=4;overflow=hidden;rotatable=0;points=[[0,0.5],[1,0.5]];portConstraint=eastwest;" vertex="1" parent="re5-jsA7W_6qkic04XHl-25">
          <mxGeometry y="26" width="160" height="84" as="geometry"/>
        </mxCell>
        <mxCell id="re5-jsA7W_6qkic04XHl-27" value="" style="line;strokeWidth=1;fillColor=none;align=left;verticalAlign=middle;spacingTop=-1;spacingLeft=3;spacingRight=3;rotatable=0;labelPosition=right;points=[];portConstraint=eastwest;" vertex="1" parent="re5-jsA7W_6qkic04XHl-25">
          <mxGeometry y="110" width="160" height="8" as="geometry"/>
        </mxCell>
        <mxCell id="re5-jsA7W_6qkic04XHl-28" value="+ use()&#xa;+ add()&#xa;+ update()&#xa;+ delete()" style="text;strokeColor=none;fillColor=none;align=left;verticalAlign=top;spacingLeft=4;spacingRight=4;overflow=hidden;rotatable=0;points=[[0,0.5],[1,0.5]];portConstraint=eastwest;" vertex="1" parent="re5-jsA7W_6qkic04XHl-25">
          <mxGeometry y="118" width="160" height="72" as="geometry"/>
        </mxCell>
        <mxCell id="re5-jsA7W_6qkic04XHl-42" style="edgeStyle=none;rounded=0;orthogonalLoop=1;jettySize=auto;html=1;exitX=0.5;exitY=0;exitDx=0;exitDy=0;startArrow=open;startFill=0;endArrow=diamondThin;endFill=0;" edge="1" parent="1" source="re5-jsA7W_6qkic04XHl-29">
          <mxGeometry relative="1" as="geometry">
            <mxPoint x="1510" y="1739.67" as="targetPoint"/>
          </mxGeometry>
        </mxCell>
        <mxCell id="re5-jsA7W_6qkic04XHl-29" value="FrontendData" style="swimlane;fontStyle=1;align=center;verticalAlign=top;childLayout=stackLayout;horizontal=1;startSize=26;horizontalStack=0;resizeParent=1;resizeParentMax=0;resizeLast=0;collapsible=1;marginBottom=0;" vertex="1" parent="1">
          <mxGeometry x="1820" y="1899.67" width="160" height="200" as="geometry"/>
        </mxCell>
        <mxCell id="re5-jsA7W_6qkic04XHl-30" value="+ id: number;&#xa;+ type: string;&#xa;+ label: string;&#xa;+ name: string;&#xa;+ value: any;&#xa;+ schema: Schema;" style="text;strokeColor=none;fillColor=none;align=left;verticalAlign=top;spacingLeft=4;spacingRight=4;overflow=hidden;rotatable=0;points=[[0,0.5],[1,0.5]];portConstraint=eastwest;" vertex="1" parent="re5-jsA7W_6qkic04XHl-29">
          <mxGeometry y="26" width="160" height="94" as="geometry"/>
        </mxCell>
        <mxCell id="re5-jsA7W_6qkic04XHl-31" value="" style="line;strokeWidth=1;fillColor=none;align=left;verticalAlign=middle;spacingTop=-1;spacingLeft=3;spacingRight=3;rotatable=0;labelPosition=right;points=[];portConstraint=eastwest;" vertex="1" parent="re5-jsA7W_6qkic04XHl-29">
          <mxGeometry y="120" width="160" height="8" as="geometry"/>
        </mxCell>
        <mxCell id="re5-jsA7W_6qkic04XHl-32" value="+ use()&#xa;+ add()&#xa;+ update()&#xa;+ delete()" style="text;strokeColor=none;fillColor=none;align=left;verticalAlign=top;spacingLeft=4;spacingRight=4;overflow=hidden;rotatable=0;points=[[0,0.5],[1,0.5]];portConstraint=eastwest;" vertex="1" parent="re5-jsA7W_6qkic04XHl-29">
          <mxGeometry y="128" width="160" height="72" as="geometry"/>
        </mxCell>
        <mxCell id="re5-jsA7W_6qkic04XHl-43" style="edgeStyle=none;rounded=0;orthogonalLoop=1;jettySize=auto;html=1;exitX=0.5;exitY=0;exitDx=0;exitDy=0;entryX=0.431;entryY=1;entryDx=0;entryDy=0;entryPerimeter=0;startArrow=open;startFill=0;endArrow=diamondThin;endFill=0;" edge="1" parent="1" source="re5-jsA7W_6qkic04XHl-33" target="re5-jsA7W_6qkic04XHl-4">
          <mxGeometry relative="1" as="geometry"/>
        </mxCell>
        <mxCell id="re5-jsA7W_6qkic04XHl-33" value="BackendData" style="swimlane;fontStyle=1;align=center;verticalAlign=top;childLayout=stackLayout;horizontal=1;startSize=26;horizontalStack=0;resizeParent=1;resizeParentMax=0;resizeLast=0;collapsible=1;marginBottom=0;" vertex="1" parent="1">
          <mxGeometry x="2000" y="1899.67" width="160" height="200" as="geometry"/>
        </mxCell>
        <mxCell id="re5-jsA7W_6qkic04XHl-34" value="+ id: number;&#xa;+ type: string;&#xa;+ label: string;&#xa;+ name: string;&#xa;+ value: any;&#xa;+ schema: Schema;" style="text;strokeColor=none;fillColor=none;align=left;verticalAlign=top;spacingLeft=4;spacingRight=4;overflow=hidden;rotatable=0;points=[[0,0.5],[1,0.5]];portConstraint=eastwest;" vertex="1" parent="re5-jsA7W_6qkic04XHl-33">
          <mxGeometry y="26" width="160" height="94" as="geometry"/>
        </mxCell>
        <mxCell id="re5-jsA7W_6qkic04XHl-35" value="" style="line;strokeWidth=1;fillColor=none;align=left;verticalAlign=middle;spacingTop=-1;spacingLeft=3;spacingRight=3;rotatable=0;labelPosition=right;points=[];portConstraint=eastwest;" vertex="1" parent="re5-jsA7W_6qkic04XHl-33">
          <mxGeometry y="120" width="160" height="8" as="geometry"/>
        </mxCell>
        <mxCell id="re5-jsA7W_6qkic04XHl-36" value="+ use()&#xa;+ add()&#xa;+ update()&#xa;+ delete()" style="text;strokeColor=none;fillColor=none;align=left;verticalAlign=top;spacingLeft=4;spacingRight=4;overflow=hidden;rotatable=0;points=[[0,0.5],[1,0.5]];portConstraint=eastwest;" vertex="1" parent="re5-jsA7W_6qkic04XHl-33">
          <mxGeometry y="128" width="160" height="72" as="geometry"/>
        </mxCell>
        <mxCell id="re5-jsA7W_6qkic04XHl-56" style="edgeStyle=none;rounded=0;orthogonalLoop=1;jettySize=auto;html=1;exitX=0.5;exitY=0;exitDx=0;exitDy=0;entryX=0.498;entryY=1;entryDx=0;entryDy=0;entryPerimeter=0;startArrow=open;startFill=0;endArrow=diamondThin;endFill=0;" edge="1" parent="1" source="re5-jsA7W_6qkic04XHl-44" target="re5-jsA7W_6qkic04XHl-20">
          <mxGeometry relative="1" as="geometry"/>
        </mxCell>
        <mxCell id="re5-jsA7W_6qkic04XHl-44" value="FrontendMiniCode" style="swimlane;fontStyle=1;align=center;verticalAlign=top;childLayout=stackLayout;horizontal=1;startSize=26;horizontalStack=0;resizeParent=1;resizeParentMax=0;resizeLast=0;collapsible=1;marginBottom=0;" vertex="1" parent="1">
          <mxGeometry x="1430" y="2199.67" width="160" height="200" as="geometry"/>
        </mxCell>
        <mxCell id="re5-jsA7W_6qkic04XHl-45" value="+ id&#xa;+ name&#xa;+ props&#xa;+ usemethod&#xa;+ dependency&#xa;+ git" style="text;strokeColor=none;fillColor=none;align=left;verticalAlign=top;spacingLeft=4;spacingRight=4;overflow=hidden;rotatable=0;points=[[0,0.5],[1,0.5]];portConstraint=eastwest;" vertex="1" parent="re5-jsA7W_6qkic04XHl-44">
          <mxGeometry y="26" width="160" height="94" as="geometry"/>
        </mxCell>
        <mxCell id="re5-jsA7W_6qkic04XHl-46" value="" style="line;strokeWidth=1;fillColor=none;align=left;verticalAlign=middle;spacingTop=-1;spacingLeft=3;spacingRight=3;rotatable=0;labelPosition=right;points=[];portConstraint=eastwest;" vertex="1" parent="re5-jsA7W_6qkic04XHl-44">
          <mxGeometry y="120" width="160" height="8" as="geometry"/>
        </mxCell>
        <mxCell id="re5-jsA7W_6qkic04XHl-47" value="+ use()&#xa;+ add()&#xa;+ update()&#xa;+ delete()" style="text;strokeColor=none;fillColor=none;align=left;verticalAlign=top;spacingLeft=4;spacingRight=4;overflow=hidden;rotatable=0;points=[[0,0.5],[1,0.5]];portConstraint=eastwest;" vertex="1" parent="re5-jsA7W_6qkic04XHl-44">
          <mxGeometry y="128" width="160" height="72" as="geometry"/>
        </mxCell>
        <mxCell id="re5-jsA7W_6qkic04XHl-57" style="edgeStyle=none;rounded=0;orthogonalLoop=1;jettySize=auto;html=1;exitX=0.5;exitY=0;exitDx=0;exitDy=0;entryX=0.486;entryY=1.021;entryDx=0;entryDy=0;entryPerimeter=0;startArrow=open;startFill=0;endArrow=diamondThin;endFill=0;" edge="1" parent="1" source="re5-jsA7W_6qkic04XHl-52" target="re5-jsA7W_6qkic04XHl-28">
          <mxGeometry relative="1" as="geometry"/>
        </mxCell>
        <mxCell id="re5-jsA7W_6qkic04XHl-52" value="BackendMiniCode" style="swimlane;fontStyle=1;align=center;verticalAlign=top;childLayout=stackLayout;horizontal=1;startSize=26;horizontalStack=0;resizeParent=1;resizeParentMax=0;resizeLast=0;collapsible=1;marginBottom=0;" vertex="1" parent="1">
          <mxGeometry x="1630" y="2199.67" width="160" height="200" as="geometry"/>
        </mxCell>
        <mxCell id="re5-jsA7W_6qkic04XHl-53" value="+ id&#xa;+ name&#xa;+ props&#xa;+ usemethod&#xa;+ dependency&#xa;+ git" style="text;strokeColor=none;fillColor=none;align=left;verticalAlign=top;spacingLeft=4;spacingRight=4;overflow=hidden;rotatable=0;points=[[0,0.5],[1,0.5]];portConstraint=eastwest;" vertex="1" parent="re5-jsA7W_6qkic04XHl-52">
          <mxGeometry y="26" width="160" height="94" as="geometry"/>
        </mxCell>
        <mxCell id="re5-jsA7W_6qkic04XHl-54" value="" style="line;strokeWidth=1;fillColor=none;align=left;verticalAlign=middle;spacingTop=-1;spacingLeft=3;spacingRight=3;rotatable=0;labelPosition=right;points=[];portConstraint=eastwest;" vertex="1" parent="re5-jsA7W_6qkic04XHl-52">
          <mxGeometry y="120" width="160" height="8" as="geometry"/>
        </mxCell>
        <mxCell id="re5-jsA7W_6qkic04XHl-55" value="+ use()&#xa;+ add()&#xa;+ update()&#xa;+ delete()" style="text;strokeColor=none;fillColor=none;align=left;verticalAlign=top;spacingLeft=4;spacingRight=4;overflow=hidden;rotatable=0;points=[[0,0.5],[1,0.5]];portConstraint=eastwest;" vertex="1" parent="re5-jsA7W_6qkic04XHl-52">
          <mxGeometry y="128" width="160" height="72" as="geometry"/>
        </mxCell>
        <mxCell id="re5-jsA7W_6qkic04XHl-62" style="edgeStyle=none;rounded=0;orthogonalLoop=1;jettySize=auto;html=1;exitX=0.5;exitY=0;exitDx=0;exitDy=0;entryX=0.503;entryY=1.006;entryDx=0;entryDy=0;entryPerimeter=0;startArrow=block;startFill=0;endArrow=none;endFill=0;" edge="1" parent="1" source="re5-jsA7W_6qkic04XHl-58" target="re5-jsA7W_6qkic04XHl-47">
          <mxGeometry relative="1" as="geometry"/>
        </mxCell>
        <mxCell id="re5-jsA7W_6qkic04XHl-63" style="edgeStyle=none;rounded=0;orthogonalLoop=1;jettySize=auto;html=1;exitX=0.5;exitY=0;exitDx=0;exitDy=0;entryX=0.52;entryY=0.997;entryDx=0;entryDy=0;entryPerimeter=0;startArrow=block;startFill=0;endArrow=none;endFill=0;" edge="1" parent="1" source="re5-jsA7W_6qkic04XHl-58" target="re5-jsA7W_6qkic04XHl-55">
          <mxGeometry relative="1" as="geometry"/>
        </mxCell>
        <mxCell id="re5-jsA7W_6qkic04XHl-58" value="MiniCode" style="swimlane;fontStyle=1;align=center;verticalAlign=top;childLayout=stackLayout;horizontal=1;startSize=26;horizontalStack=0;resizeParent=1;resizeParentMax=0;resizeLast=0;collapsible=1;marginBottom=0;" vertex="1" parent="1">
          <mxGeometry x="1540" y="2499.67" width="160" height="200" as="geometry"/>
        </mxCell>
        <mxCell id="re5-jsA7W_6qkic04XHl-59" value="+ id&#xa;+ name&#xa;+ props&#xa;+ usemethod&#xa;+ dependency&#xa;+ git" style="text;strokeColor=none;fillColor=none;align=left;verticalAlign=top;spacingLeft=4;spacingRight=4;overflow=hidden;rotatable=0;points=[[0,0.5],[1,0.5]];portConstraint=eastwest;" vertex="1" parent="re5-jsA7W_6qkic04XHl-58">
          <mxGeometry y="26" width="160" height="94" as="geometry"/>
        </mxCell>
        <mxCell id="re5-jsA7W_6qkic04XHl-60" value="" style="line;strokeWidth=1;fillColor=none;align=left;verticalAlign=middle;spacingTop=-1;spacingLeft=3;spacingRight=3;rotatable=0;labelPosition=right;points=[];portConstraint=eastwest;" vertex="1" parent="re5-jsA7W_6qkic04XHl-58">
          <mxGeometry y="120" width="160" height="8" as="geometry"/>
        </mxCell>
        <mxCell id="re5-jsA7W_6qkic04XHl-61" value="+ use()&#xa;+ add()&#xa;+ update()&#xa;+ delete()" style="text;strokeColor=none;fillColor=none;align=left;verticalAlign=top;spacingLeft=4;spacingRight=4;overflow=hidden;rotatable=0;points=[[0,0.5],[1,0.5]];portConstraint=eastwest;" vertex="1" parent="re5-jsA7W_6qkic04XHl-58">
          <mxGeometry y="128" width="160" height="72" as="geometry"/>
        </mxCell>
        <mxCell id="re5-jsA7W_6qkic04XHl-72" style="edgeStyle=none;rounded=0;orthogonalLoop=1;jettySize=auto;html=1;exitX=0.5;exitY=0;exitDx=0;exitDy=0;entryX=0.539;entryY=0.997;entryDx=0;entryDy=0;entryPerimeter=0;startArrow=open;startFill=0;endArrow=diamond;endFill=0;" edge="1" parent="1" source="re5-jsA7W_6qkic04XHl-64" target="re5-jsA7W_6qkic04XHl-61">
          <mxGeometry relative="1" as="geometry"/>
        </mxCell>
        <mxCell id="re5-jsA7W_6qkic04XHl-64" value="Props" style="swimlane;fontStyle=1;align=center;verticalAlign=top;childLayout=stackLayout;horizontal=1;startSize=26;horizontalStack=0;resizeParent=1;resizeParentMax=0;resizeLast=0;collapsible=1;marginBottom=0;" vertex="1" parent="1">
          <mxGeometry x="1350" y="2769.67" width="160" height="240" as="geometry"/>
        </mxCell>
        <mxCell id="re5-jsA7W_6qkic04XHl-65" value="+ id: int,&#xa;+ key: string,&#xa;+ label: string,&#xa;+ schemaOperationBoard: &#39;enum&#39;,&#xa;+ schema: object,&#xa;+ category: enum &lt;&#39;attributes&#39;, &#39;events&#39;, &#39;slots&#39;, &#39;params&#39;&gt;,&#xa;+ value: &#39;&#39;,&#xa;+ default: &#39;&#39;,&#xa;+ isExoprt: &#39;true/false&#39;" style="text;strokeColor=none;fillColor=none;align=left;verticalAlign=top;spacingLeft=4;spacingRight=4;overflow=hidden;rotatable=0;points=[[0,0.5],[1,0.5]];portConstraint=eastwest;" vertex="1" parent="re5-jsA7W_6qkic04XHl-64">
          <mxGeometry y="26" width="160" height="134" as="geometry"/>
        </mxCell>
        <mxCell id="re5-jsA7W_6qkic04XHl-66" value="" style="line;strokeWidth=1;fillColor=none;align=left;verticalAlign=middle;spacingTop=-1;spacingLeft=3;spacingRight=3;rotatable=0;labelPosition=right;points=[];portConstraint=eastwest;" vertex="1" parent="re5-jsA7W_6qkic04XHl-64">
          <mxGeometry y="160" width="160" height="8" as="geometry"/>
        </mxCell>
        <mxCell id="re5-jsA7W_6qkic04XHl-67" value="+ use()&#xa;+ add()&#xa;+ update()&#xa;+ delete()" style="text;strokeColor=none;fillColor=none;align=left;verticalAlign=top;spacingLeft=4;spacingRight=4;overflow=hidden;rotatable=0;points=[[0,0.5],[1,0.5]];portConstraint=eastwest;" vertex="1" parent="re5-jsA7W_6qkic04XHl-64">
          <mxGeometry y="168" width="160" height="72" as="geometry"/>
        </mxCell>
        <mxCell id="re5-jsA7W_6qkic04XHl-73" style="edgeStyle=none;rounded=0;orthogonalLoop=1;jettySize=auto;html=1;exitX=0.5;exitY=0;exitDx=0;exitDy=0;startArrow=open;startFill=0;endArrow=diamond;endFill=0;" edge="1" parent="1" source="re5-jsA7W_6qkic04XHl-68" target="re5-jsA7W_6qkic04XHl-61">
          <mxGeometry relative="1" as="geometry"/>
        </mxCell>
        <mxCell id="re5-jsA7W_6qkic04XHl-68" value="UseMethod" style="swimlane;fontStyle=1;align=center;verticalAlign=top;childLayout=stackLayout;horizontal=1;startSize=26;horizontalStack=0;resizeParent=1;resizeParentMax=0;resizeLast=0;collapsible=1;marginBottom=0;" vertex="1" parent="1">
          <mxGeometry x="1540" y="2769.67" width="160" height="160" as="geometry"/>
        </mxCell>
        <mxCell id="re5-jsA7W_6qkic04XHl-69" value="+ current_context: ContextType;&#xa;+ head_order: Code;&#xa;+ generateCode: Function;" style="text;strokeColor=none;fillColor=none;align=left;verticalAlign=top;spacingLeft=4;spacingRight=4;overflow=hidden;rotatable=0;points=[[0,0.5],[1,0.5]];portConstraint=eastwest;" vertex="1" parent="re5-jsA7W_6qkic04XHl-68">
          <mxGeometry y="26" width="160" height="54" as="geometry"/>
        </mxCell>
        <mxCell id="re5-jsA7W_6qkic04XHl-70" value="" style="line;strokeWidth=1;fillColor=none;align=left;verticalAlign=middle;spacingTop=-1;spacingLeft=3;spacingRight=3;rotatable=0;labelPosition=right;points=[];portConstraint=eastwest;" vertex="1" parent="re5-jsA7W_6qkic04XHl-68">
          <mxGeometry y="80" width="160" height="8" as="geometry"/>
        </mxCell>
        <mxCell id="re5-jsA7W_6qkic04XHl-71" value="+ use()&#xa;+ add()&#xa;+ update()&#xa;+ delete()" style="text;strokeColor=none;fillColor=none;align=left;verticalAlign=top;spacingLeft=4;spacingRight=4;overflow=hidden;rotatable=0;points=[[0,0.5],[1,0.5]];portConstraint=eastwest;" vertex="1" parent="re5-jsA7W_6qkic04XHl-68">
          <mxGeometry y="88" width="160" height="72" as="geometry"/>
        </mxCell>
        <mxCell id="re5-jsA7W_6qkic04XHl-78" style="edgeStyle=none;rounded=0;orthogonalLoop=1;jettySize=auto;html=1;exitX=0.5;exitY=0;exitDx=0;exitDy=0;entryX=0.479;entryY=0.997;entryDx=0;entryDy=0;entryPerimeter=0;startArrow=open;startFill=0;endArrow=diamond;endFill=0;" edge="1" parent="1" source="re5-jsA7W_6qkic04XHl-74" target="re5-jsA7W_6qkic04XHl-61">
          <mxGeometry relative="1" as="geometry"/>
        </mxCell>
        <mxCell id="re5-jsA7W_6qkic04XHl-74" value="SourceCode" style="swimlane;fontStyle=1;align=center;verticalAlign=top;childLayout=stackLayout;horizontal=1;startSize=26;horizontalStack=0;resizeParent=1;resizeParentMax=0;resizeLast=0;collapsible=1;marginBottom=0;" vertex="1" parent="1">
          <mxGeometry x="1730" y="2769.67" width="160" height="220" as="geometry"/>
        </mxCell>
        <mxCell id="re5-jsA7W_6qkic04XHl-75" value="+ id:&#xa;+ name:&#xa;+ code_template: string&#xa;+ params: array&#xa;+ return_define:&#xa;+ extra: &#xa;+ dependency:  array&lt;dependency&gt;" style="text;strokeColor=none;fillColor=none;align=left;verticalAlign=top;spacingLeft=4;spacingRight=4;overflow=hidden;rotatable=0;points=[[0,0.5],[1,0.5]];portConstraint=eastwest;" vertex="1" parent="re5-jsA7W_6qkic04XHl-74">
          <mxGeometry y="26" width="160" height="114" as="geometry"/>
        </mxCell>
        <mxCell id="re5-jsA7W_6qkic04XHl-76" value="" style="line;strokeWidth=1;fillColor=none;align=left;verticalAlign=middle;spacingTop=-1;spacingLeft=3;spacingRight=3;rotatable=0;labelPosition=right;points=[];portConstraint=eastwest;" vertex="1" parent="re5-jsA7W_6qkic04XHl-74">
          <mxGeometry y="140" width="160" height="8" as="geometry"/>
        </mxCell>
        <mxCell id="re5-jsA7W_6qkic04XHl-77" value="+ use()&#xa;+ add()&#xa;+ update()&#xa;+ delete()" style="text;strokeColor=none;fillColor=none;align=left;verticalAlign=top;spacingLeft=4;spacingRight=4;overflow=hidden;rotatable=0;points=[[0,0.5],[1,0.5]];portConstraint=eastwest;" vertex="1" parent="re5-jsA7W_6qkic04XHl-74">
          <mxGeometry y="148" width="160" height="72" as="geometry"/>
        </mxCell>
        <mxCell id="re5-jsA7W_6qkic04XHl-83" style="edgeStyle=none;rounded=0;orthogonalLoop=1;jettySize=auto;html=1;exitX=0.5;exitY=0;exitDx=0;exitDy=0;entryX=0.486;entryY=1.011;entryDx=0;entryDy=0;entryPerimeter=0;startArrow=open;startFill=0;endArrow=diamond;endFill=0;" edge="1" parent="1" source="re5-jsA7W_6qkic04XHl-79" target="re5-jsA7W_6qkic04XHl-77">
          <mxGeometry relative="1" as="geometry"/>
        </mxCell>
        <mxCell id="re5-jsA7W_6qkic04XHl-79" value="MouduleInDenpendency" style="swimlane;fontStyle=1;align=center;verticalAlign=top;childLayout=stackLayout;horizontal=1;startSize=26;horizontalStack=0;resizeParent=1;resizeParentMax=0;resizeLast=0;collapsible=1;marginBottom=0;" vertex="1" parent="1">
          <mxGeometry x="1728" y="3049.67" width="160" height="220" as="geometry"/>
        </mxCell>
        <mxCell id="re5-jsA7W_6qkic04XHl-80" value="+ id:&#xa;+ name:&#xa;+ code_template: string&#xa;+ params: array&#xa;+ return_define:&#xa;+ extra: &#xa;+ dependency:  array&lt;dependency&gt;" style="text;strokeColor=none;fillColor=none;align=left;verticalAlign=top;spacingLeft=4;spacingRight=4;overflow=hidden;rotatable=0;points=[[0,0.5],[1,0.5]];portConstraint=eastwest;" vertex="1" parent="re5-jsA7W_6qkic04XHl-79">
          <mxGeometry y="26" width="160" height="114" as="geometry"/>
        </mxCell>
        <mxCell id="re5-jsA7W_6qkic04XHl-81" value="" style="line;strokeWidth=1;fillColor=none;align=left;verticalAlign=middle;spacingTop=-1;spacingLeft=3;spacingRight=3;rotatable=0;labelPosition=right;points=[];portConstraint=eastwest;" vertex="1" parent="re5-jsA7W_6qkic04XHl-79">
          <mxGeometry y="140" width="160" height="8" as="geometry"/>
        </mxCell>
        <mxCell id="re5-jsA7W_6qkic04XHl-82" value="+ use()&#xa;+ add()&#xa;+ update()&#xa;+ delete()" style="text;strokeColor=none;fillColor=none;align=left;verticalAlign=top;spacingLeft=4;spacingRight=4;overflow=hidden;rotatable=0;points=[[0,0.5],[1,0.5]];portConstraint=eastwest;" vertex="1" parent="re5-jsA7W_6qkic04XHl-79">
          <mxGeometry y="148" width="160" height="72" as="geometry"/>
        </mxCell>
        <mxCell id="re5-jsA7W_6qkic04XHl-108" style="edgeStyle=none;rounded=0;orthogonalLoop=1;jettySize=auto;html=1;exitX=0.5;exitY=0;exitDx=0;exitDy=0;entryX=0.525;entryY=1.019;entryDx=0;entryDy=0;entryPerimeter=0;startArrow=none;startFill=0;endArrow=block;endFill=0;" edge="1" parent="1" source="re5-jsA7W_6qkic04XHl-84" target="re5-jsA7W_6qkic04XHl-82">
          <mxGeometry relative="1" as="geometry"/>
        </mxCell>
        <mxCell id="re5-jsA7W_6qkic04XHl-84" value="Npm" style="swimlane;fontStyle=1;align=center;verticalAlign=top;childLayout=stackLayout;horizontal=1;startSize=26;horizontalStack=0;resizeParent=1;resizeParentMax=0;resizeLast=0;collapsible=1;marginBottom=0;" vertex="1" parent="1">
          <mxGeometry x="1253" y="3359.67" width="160" height="160" as="geometry"/>
        </mxCell>
        <mxCell id="re5-jsA7W_6qkic04XHl-85" value="+ id: int&#xa;+ name: string+ content: string&#xa;+ return_type: any" style="text;strokeColor=none;fillColor=none;align=left;verticalAlign=top;spacingLeft=4;spacingRight=4;overflow=hidden;rotatable=0;points=[[0,0.5],[1,0.5]];portConstraint=eastwest;" vertex="1" parent="re5-jsA7W_6qkic04XHl-84">
          <mxGeometry y="26" width="160" height="54" as="geometry"/>
        </mxCell>
        <mxCell id="re5-jsA7W_6qkic04XHl-86" value="" style="line;strokeWidth=1;fillColor=none;align=left;verticalAlign=middle;spacingTop=-1;spacingLeft=3;spacingRight=3;rotatable=0;labelPosition=right;points=[];portConstraint=eastwest;" vertex="1" parent="re5-jsA7W_6qkic04XHl-84">
          <mxGeometry y="80" width="160" height="8" as="geometry"/>
        </mxCell>
        <mxCell id="re5-jsA7W_6qkic04XHl-87" value="+ use()&#xa;+ add()&#xa;+ update()&#xa;+ delete()" style="text;strokeColor=none;fillColor=none;align=left;verticalAlign=top;spacingLeft=4;spacingRight=4;overflow=hidden;rotatable=0;points=[[0,0.5],[1,0.5]];portConstraint=eastwest;" vertex="1" parent="re5-jsA7W_6qkic04XHl-84">
          <mxGeometry y="88" width="160" height="72" as="geometry"/>
        </mxCell>
        <mxCell id="re5-jsA7W_6qkic04XHl-109" style="edgeStyle=none;rounded=0;orthogonalLoop=1;jettySize=auto;html=1;exitX=0.5;exitY=0;exitDx=0;exitDy=0;entryX=0.525;entryY=1.019;entryDx=0;entryDy=0;entryPerimeter=0;startArrow=none;startFill=0;endArrow=block;endFill=0;" edge="1" parent="1" source="re5-jsA7W_6qkic04XHl-88" target="re5-jsA7W_6qkic04XHl-82">
          <mxGeometry relative="1" as="geometry"/>
        </mxCell>
        <mxCell id="re5-jsA7W_6qkic04XHl-88" value="Composer" style="swimlane;fontStyle=1;align=center;verticalAlign=top;childLayout=stackLayout;horizontal=1;startSize=26;horizontalStack=0;resizeParent=1;resizeParentMax=0;resizeLast=0;collapsible=1;marginBottom=0;" vertex="1" parent="1">
          <mxGeometry x="1443" y="3359.67" width="160" height="160" as="geometry"/>
        </mxCell>
        <mxCell id="re5-jsA7W_6qkic04XHl-89" value="+ id: int&#xa;+ name: string+ content: string&#xa;+ return_type: any" style="text;strokeColor=none;fillColor=none;align=left;verticalAlign=top;spacingLeft=4;spacingRight=4;overflow=hidden;rotatable=0;points=[[0,0.5],[1,0.5]];portConstraint=eastwest;" vertex="1" parent="re5-jsA7W_6qkic04XHl-88">
          <mxGeometry y="26" width="160" height="54" as="geometry"/>
        </mxCell>
        <mxCell id="re5-jsA7W_6qkic04XHl-90" value="" style="line;strokeWidth=1;fillColor=none;align=left;verticalAlign=middle;spacingTop=-1;spacingLeft=3;spacingRight=3;rotatable=0;labelPosition=right;points=[];portConstraint=eastwest;" vertex="1" parent="re5-jsA7W_6qkic04XHl-88">
          <mxGeometry y="80" width="160" height="8" as="geometry"/>
        </mxCell>
        <mxCell id="re5-jsA7W_6qkic04XHl-91" value="+ use()&#xa;+ add()&#xa;+ update()&#xa;+ delete()" style="text;strokeColor=none;fillColor=none;align=left;verticalAlign=top;spacingLeft=4;spacingRight=4;overflow=hidden;rotatable=0;points=[[0,0.5],[1,0.5]];portConstraint=eastwest;" vertex="1" parent="re5-jsA7W_6qkic04XHl-88">
          <mxGeometry y="88" width="160" height="72" as="geometry"/>
        </mxCell>
        <mxCell id="re5-jsA7W_6qkic04XHl-110" style="edgeStyle=none;rounded=0;orthogonalLoop=1;jettySize=auto;html=1;exitX=0.5;exitY=0;exitDx=0;exitDy=0;entryX=0.535;entryY=1.065;entryDx=0;entryDy=0;entryPerimeter=0;startArrow=none;startFill=0;endArrow=block;endFill=0;" edge="1" parent="1" source="re5-jsA7W_6qkic04XHl-92" target="re5-jsA7W_6qkic04XHl-82">
          <mxGeometry relative="1" as="geometry"/>
        </mxCell>
        <mxCell id="re5-jsA7W_6qkic04XHl-92" value="Maven" style="swimlane;fontStyle=1;align=center;verticalAlign=top;childLayout=stackLayout;horizontal=1;startSize=26;horizontalStack=0;resizeParent=1;resizeParentMax=0;resizeLast=0;collapsible=1;marginBottom=0;" vertex="1" parent="1">
          <mxGeometry x="1633" y="3359.67" width="160" height="160" as="geometry"/>
        </mxCell>
        <mxCell id="re5-jsA7W_6qkic04XHl-93" value="+ id: int&#xa;+ name: string+ content: string&#xa;+ return_type: any" style="text;strokeColor=none;fillColor=none;align=left;verticalAlign=top;spacingLeft=4;spacingRight=4;overflow=hidden;rotatable=0;points=[[0,0.5],[1,0.5]];portConstraint=eastwest;" vertex="1" parent="re5-jsA7W_6qkic04XHl-92">
          <mxGeometry y="26" width="160" height="54" as="geometry"/>
        </mxCell>
        <mxCell id="re5-jsA7W_6qkic04XHl-94" value="" style="line;strokeWidth=1;fillColor=none;align=left;verticalAlign=middle;spacingTop=-1;spacingLeft=3;spacingRight=3;rotatable=0;labelPosition=right;points=[];portConstraint=eastwest;" vertex="1" parent="re5-jsA7W_6qkic04XHl-92">
          <mxGeometry y="80" width="160" height="8" as="geometry"/>
        </mxCell>
        <mxCell id="re5-jsA7W_6qkic04XHl-95" value="+ use()&#xa;+ add()&#xa;+ update()&#xa;+ delete()" style="text;strokeColor=none;fillColor=none;align=left;verticalAlign=top;spacingLeft=4;spacingRight=4;overflow=hidden;rotatable=0;points=[[0,0.5],[1,0.5]];portConstraint=eastwest;" vertex="1" parent="re5-jsA7W_6qkic04XHl-92">
          <mxGeometry y="88" width="160" height="72" as="geometry"/>
        </mxCell>
        <mxCell id="re5-jsA7W_6qkic04XHl-111" style="edgeStyle=none;rounded=0;orthogonalLoop=1;jettySize=auto;html=1;exitX=0.5;exitY=0;exitDx=0;exitDy=0;startArrow=none;startFill=0;endArrow=block;endFill=0;" edge="1" parent="1" source="re5-jsA7W_6qkic04XHl-96">
          <mxGeometry relative="1" as="geometry">
            <mxPoint x="1810" y="3259.67" as="targetPoint"/>
          </mxGeometry>
        </mxCell>
        <mxCell id="re5-jsA7W_6qkic04XHl-96" value="Cocopods" style="swimlane;fontStyle=1;align=center;verticalAlign=top;childLayout=stackLayout;horizontal=1;startSize=26;horizontalStack=0;resizeParent=1;resizeParentMax=0;resizeLast=0;collapsible=1;marginBottom=0;" vertex="1" parent="1">
          <mxGeometry x="1823" y="3359.67" width="160" height="160" as="geometry"/>
        </mxCell>
        <mxCell id="re5-jsA7W_6qkic04XHl-97" value="+ id: int&#xa;+ name: string+ content: string&#xa;+ return_type: any" style="text;strokeColor=none;fillColor=none;align=left;verticalAlign=top;spacingLeft=4;spacingRight=4;overflow=hidden;rotatable=0;points=[[0,0.5],[1,0.5]];portConstraint=eastwest;" vertex="1" parent="re5-jsA7W_6qkic04XHl-96">
          <mxGeometry y="26" width="160" height="54" as="geometry"/>
        </mxCell>
        <mxCell id="re5-jsA7W_6qkic04XHl-98" value="" style="line;strokeWidth=1;fillColor=none;align=left;verticalAlign=middle;spacingTop=-1;spacingLeft=3;spacingRight=3;rotatable=0;labelPosition=right;points=[];portConstraint=eastwest;" vertex="1" parent="re5-jsA7W_6qkic04XHl-96">
          <mxGeometry y="80" width="160" height="8" as="geometry"/>
        </mxCell>
        <mxCell id="re5-jsA7W_6qkic04XHl-99" value="+ use()&#xa;+ add()&#xa;+ update()&#xa;+ delete()" style="text;strokeColor=none;fillColor=none;align=left;verticalAlign=top;spacingLeft=4;spacingRight=4;overflow=hidden;rotatable=0;points=[[0,0.5],[1,0.5]];portConstraint=eastwest;" vertex="1" parent="re5-jsA7W_6qkic04XHl-96">
          <mxGeometry y="88" width="160" height="72" as="geometry"/>
        </mxCell>
        <mxCell id="re5-jsA7W_6qkic04XHl-112" style="edgeStyle=none;rounded=0;orthogonalLoop=1;jettySize=auto;html=1;exitX=0.5;exitY=0;exitDx=0;exitDy=0;startArrow=none;startFill=0;endArrow=block;endFill=0;" edge="1" parent="1" source="re5-jsA7W_6qkic04XHl-100">
          <mxGeometry relative="1" as="geometry">
            <mxPoint x="1810" y="3269.67" as="targetPoint"/>
          </mxGeometry>
        </mxCell>
        <mxCell id="re5-jsA7W_6qkic04XHl-100" value="Git" style="swimlane;fontStyle=1;align=center;verticalAlign=top;childLayout=stackLayout;horizontal=1;startSize=26;horizontalStack=0;resizeParent=1;resizeParentMax=0;resizeLast=0;collapsible=1;marginBottom=0;" vertex="1" parent="1">
          <mxGeometry x="2013" y="3359.67" width="160" height="160" as="geometry"/>
        </mxCell>
        <mxCell id="re5-jsA7W_6qkic04XHl-101" value="+ id: int&#xa;+ name: string+ content: string&#xa;+ return_type: any" style="text;strokeColor=none;fillColor=none;align=left;verticalAlign=top;spacingLeft=4;spacingRight=4;overflow=hidden;rotatable=0;points=[[0,0.5],[1,0.5]];portConstraint=eastwest;" vertex="1" parent="re5-jsA7W_6qkic04XHl-100">
          <mxGeometry y="26" width="160" height="54" as="geometry"/>
        </mxCell>
        <mxCell id="re5-jsA7W_6qkic04XHl-102" value="" style="line;strokeWidth=1;fillColor=none;align=left;verticalAlign=middle;spacingTop=-1;spacingLeft=3;spacingRight=3;rotatable=0;labelPosition=right;points=[];portConstraint=eastwest;" vertex="1" parent="re5-jsA7W_6qkic04XHl-100">
          <mxGeometry y="80" width="160" height="8" as="geometry"/>
        </mxCell>
        <mxCell id="re5-jsA7W_6qkic04XHl-103" value="+ use()&#xa;+ add()&#xa;+ update()&#xa;+ delete()" style="text;strokeColor=none;fillColor=none;align=left;verticalAlign=top;spacingLeft=4;spacingRight=4;overflow=hidden;rotatable=0;points=[[0,0.5],[1,0.5]];portConstraint=eastwest;" vertex="1" parent="re5-jsA7W_6qkic04XHl-100">
          <mxGeometry y="88" width="160" height="72" as="geometry"/>
        </mxCell>
        <mxCell id="re5-jsA7W_6qkic04XHl-113" style="edgeStyle=none;rounded=0;orthogonalLoop=1;jettySize=auto;html=1;exitX=0.5;exitY=0;exitDx=0;exitDy=0;startArrow=none;startFill=0;endArrow=block;endFill=0;" edge="1" parent="1" source="re5-jsA7W_6qkic04XHl-104">
          <mxGeometry relative="1" as="geometry">
            <mxPoint x="1820" y="3269.67" as="targetPoint"/>
          </mxGeometry>
        </mxCell>
        <mxCell id="re5-jsA7W_6qkic04XHl-104" value="Service" style="swimlane;fontStyle=1;align=center;verticalAlign=top;childLayout=stackLayout;horizontal=1;startSize=26;horizontalStack=0;resizeParent=1;resizeParentMax=0;resizeLast=0;collapsible=1;marginBottom=0;" vertex="1" parent="1">
          <mxGeometry x="2203" y="3359.67" width="160" height="160" as="geometry"/>
        </mxCell>
        <mxCell id="re5-jsA7W_6qkic04XHl-105" value="+ id: int&#xa;+ name: string+ content: string&#xa;+ return_type: any" style="text;strokeColor=none;fillColor=none;align=left;verticalAlign=top;spacingLeft=4;spacingRight=4;overflow=hidden;rotatable=0;points=[[0,0.5],[1,0.5]];portConstraint=eastwest;" vertex="1" parent="re5-jsA7W_6qkic04XHl-104">
          <mxGeometry y="26" width="160" height="54" as="geometry"/>
        </mxCell>
        <mxCell id="re5-jsA7W_6qkic04XHl-106" value="" style="line;strokeWidth=1;fillColor=none;align=left;verticalAlign=middle;spacingTop=-1;spacingLeft=3;spacingRight=3;rotatable=0;labelPosition=right;points=[];portConstraint=eastwest;" vertex="1" parent="re5-jsA7W_6qkic04XHl-104">
          <mxGeometry y="80" width="160" height="8" as="geometry"/>
        </mxCell>
        <mxCell id="re5-jsA7W_6qkic04XHl-107" value="+ use()&#xa;+ add()&#xa;+ update()&#xa;+ delete()" style="text;strokeColor=none;fillColor=none;align=left;verticalAlign=top;spacingLeft=4;spacingRight=4;overflow=hidden;rotatable=0;points=[[0,0.5],[1,0.5]];portConstraint=eastwest;" vertex="1" parent="re5-jsA7W_6qkic04XHl-104">
          <mxGeometry y="88" width="160" height="72" as="geometry"/>
        </mxCell>
        <mxCell id="re5-jsA7W_6qkic04XHl-114" value="SinglePage" style="swimlane;fontStyle=1;align=center;verticalAlign=top;childLayout=stackLayout;horizontal=1;startSize=26;horizontalStack=0;resizeParent=1;resizeParentMax=0;resizeLast=0;collapsible=1;marginBottom=0;" vertex="1" parent="1">
          <mxGeometry x="1130" y="1509.67" width="160" height="230" as="geometry"/>
        </mxCell>
        <mxCell id="re5-jsA7W_6qkic04XHl-115" value="+ id&#xa;+ props&#xa;+ code_tree&#xa;+ render_tree&#xa;+ operation_tree&#xa;+ frontend_method&#xa;+ backend_method&#xa;+ dependency" style="text;strokeColor=none;fillColor=none;align=left;verticalAlign=top;spacingLeft=4;spacingRight=4;overflow=hidden;rotatable=0;points=[[0,0.5],[1,0.5]];portConstraint=eastwest;" vertex="1" parent="re5-jsA7W_6qkic04XHl-114">
          <mxGeometry y="26" width="160" height="124" as="geometry"/>
        </mxCell>
        <mxCell id="re5-jsA7W_6qkic04XHl-116" value="" style="line;strokeWidth=1;fillColor=none;align=left;verticalAlign=middle;spacingTop=-1;spacingLeft=3;spacingRight=3;rotatable=0;labelPosition=right;points=[];portConstraint=eastwest;" vertex="1" parent="re5-jsA7W_6qkic04XHl-114">
          <mxGeometry y="150" width="160" height="8" as="geometry"/>
        </mxCell>
        <mxCell id="re5-jsA7W_6qkic04XHl-117" value="+ use()&#xa;+ add()&#xa;+ update()&#xa;+ delete()" style="text;strokeColor=none;fillColor=none;align=left;verticalAlign=top;spacingLeft=4;spacingRight=4;overflow=hidden;rotatable=0;points=[[0,0.5],[1,0.5]];portConstraint=eastwest;" vertex="1" parent="re5-jsA7W_6qkic04XHl-114">
          <mxGeometry y="158" width="160" height="72" as="geometry"/>
        </mxCell>
        <mxCell id="re5-jsA7W_6qkic04XHl-119" value="MultiPage" style="swimlane;fontStyle=1;align=center;verticalAlign=top;childLayout=stackLayout;horizontal=1;startSize=26;horizontalStack=0;resizeParent=1;resizeParentMax=0;resizeLast=0;collapsible=1;marginBottom=0;" vertex="1" parent="1">
          <mxGeometry x="830" y="1530" width="160" height="106" as="geometry"/>
        </mxCell>
        <mxCell id="re5-jsA7W_6qkic04XHl-121" value="" style="line;strokeWidth=1;fillColor=none;align=left;verticalAlign=middle;spacingTop=-1;spacingLeft=3;spacingRight=3;rotatable=0;labelPosition=right;points=[];portConstraint=eastwest;" vertex="1" parent="re5-jsA7W_6qkic04XHl-119">
          <mxGeometry y="26" width="160" height="8" as="geometry"/>
        </mxCell>
        <mxCell id="re5-jsA7W_6qkic04XHl-122" value="+ use()&#xa;+ add()&#xa;+ update()&#xa;+ delete()" style="text;strokeColor=none;fillColor=none;align=left;verticalAlign=top;spacingLeft=4;spacingRight=4;overflow=hidden;rotatable=0;points=[[0,0.5],[1,0.5]];portConstraint=eastwest;" vertex="1" parent="re5-jsA7W_6qkic04XHl-119">
          <mxGeometry y="34" width="160" height="72" as="geometry"/>
        </mxCell>
        <mxCell id="re5-jsA7W_6qkic04XHl-124" style="edgeStyle=none;rounded=0;orthogonalLoop=1;jettySize=auto;html=1;exitX=0;exitY=0.5;exitDx=0;exitDy=0;entryX=1;entryY=0.5;entryDx=0;entryDy=0;startArrow=open;startFill=0;endArrow=diamond;endFill=0;" edge="1" parent="1" source="re5-jsA7W_6qkic04XHl-115" target="re5-jsA7W_6qkic04XHl-122">
          <mxGeometry relative="1" as="geometry"/>
        </mxCell>
        <mxCell id="re5-jsA7W_6qkic04XHl-125" value="BaseModel" style="swimlane;fontStyle=1;align=center;verticalAlign=top;childLayout=stackLayout;horizontal=1;startSize=26;horizontalStack=0;resizeParent=1;resizeParentMax=0;resizeLast=0;collapsible=1;marginBottom=0;" vertex="1" parent="1">
          <mxGeometry x="1430" y="1180" width="160" height="230" as="geometry"/>
        </mxCell>
        <mxCell id="re5-jsA7W_6qkic04XHl-126" value="+ id&#xa;+ props&#xa;+ code_tree&#xa;+ render_tree&#xa;+ operation_tree&#xa;+ frontend_method&#xa;+ backend_method&#xa;+ dependency" style="text;strokeColor=none;fillColor=none;align=left;verticalAlign=top;spacingLeft=4;spacingRight=4;overflow=hidden;rotatable=0;points=[[0,0.5],[1,0.5]];portConstraint=eastwest;" vertex="1" parent="re5-jsA7W_6qkic04XHl-125">
          <mxGeometry y="26" width="160" height="124" as="geometry"/>
        </mxCell>
        <mxCell id="re5-jsA7W_6qkic04XHl-127" value="" style="line;strokeWidth=1;fillColor=none;align=left;verticalAlign=middle;spacingTop=-1;spacingLeft=3;spacingRight=3;rotatable=0;labelPosition=right;points=[];portConstraint=eastwest;" vertex="1" parent="re5-jsA7W_6qkic04XHl-125">
          <mxGeometry y="150" width="160" height="8" as="geometry"/>
        </mxCell>
        <mxCell id="re5-jsA7W_6qkic04XHl-128" value="+ use()&#xa;+ add()&#xa;+ update()&#xa;+ delete()" style="text;strokeColor=none;fillColor=none;align=left;verticalAlign=top;spacingLeft=4;spacingRight=4;overflow=hidden;rotatable=0;points=[[0,0.5],[1,0.5]];portConstraint=eastwest;" vertex="1" parent="re5-jsA7W_6qkic04XHl-125">
          <mxGeometry y="158" width="160" height="72" as="geometry"/>
        </mxCell>
        <mxCell id="re5-jsA7W_6qkic04XHl-130" value="VueModel" style="swimlane;fontStyle=1;align=center;verticalAlign=top;childLayout=stackLayout;horizontal=1;startSize=26;horizontalStack=0;resizeParent=1;resizeParentMax=0;resizeLast=0;collapsible=1;marginBottom=0;" vertex="1" parent="1">
          <mxGeometry x="1820" y="900" width="160" height="230" as="geometry"/>
        </mxCell>
        <mxCell id="re5-jsA7W_6qkic04XHl-131" value="+ id&#xa;+ props&#xa;+ code_tree&#xa;+ render_tree&#xa;+ operation_tree&#xa;+ frontend_method&#xa;+ backend_method&#xa;+ dependency" style="text;strokeColor=none;fillColor=none;align=left;verticalAlign=top;spacingLeft=4;spacingRight=4;overflow=hidden;rotatable=0;points=[[0,0.5],[1,0.5]];portConstraint=eastwest;" vertex="1" parent="re5-jsA7W_6qkic04XHl-130">
          <mxGeometry y="26" width="160" height="124" as="geometry"/>
        </mxCell>
        <mxCell id="re5-jsA7W_6qkic04XHl-132" value="" style="line;strokeWidth=1;fillColor=none;align=left;verticalAlign=middle;spacingTop=-1;spacingLeft=3;spacingRight=3;rotatable=0;labelPosition=right;points=[];portConstraint=eastwest;" vertex="1" parent="re5-jsA7W_6qkic04XHl-130">
          <mxGeometry y="150" width="160" height="8" as="geometry"/>
        </mxCell>
        <mxCell id="re5-jsA7W_6qkic04XHl-133" value="+ use()&#xa;+ add()&#xa;+ update()&#xa;+ delete()" style="text;strokeColor=none;fillColor=none;align=left;verticalAlign=top;spacingLeft=4;spacingRight=4;overflow=hidden;rotatable=0;points=[[0,0.5],[1,0.5]];portConstraint=eastwest;" vertex="1" parent="re5-jsA7W_6qkic04XHl-130">
          <mxGeometry y="158" width="160" height="72" as="geometry"/>
        </mxCell>
        <mxCell id="re5-jsA7W_6qkic04XHl-134" value="IosModel" style="swimlane;fontStyle=1;align=center;verticalAlign=top;childLayout=stackLayout;horizontal=1;startSize=26;horizontalStack=0;resizeParent=1;resizeParentMax=0;resizeLast=0;collapsible=1;marginBottom=0;" vertex="1" parent="1">
          <mxGeometry x="1820" y="1170" width="160" height="230" as="geometry"/>
        </mxCell>
        <mxCell id="re5-jsA7W_6qkic04XHl-135" value="+ id&#xa;+ props&#xa;+ code_tree&#xa;+ render_tree&#xa;+ operation_tree&#xa;+ frontend_method&#xa;+ backend_method&#xa;+ dependency" style="text;strokeColor=none;fillColor=none;align=left;verticalAlign=top;spacingLeft=4;spacingRight=4;overflow=hidden;rotatable=0;points=[[0,0.5],[1,0.5]];portConstraint=eastwest;" vertex="1" parent="re5-jsA7W_6qkic04XHl-134">
          <mxGeometry y="26" width="160" height="124" as="geometry"/>
        </mxCell>
        <mxCell id="re5-jsA7W_6qkic04XHl-136" value="" style="line;strokeWidth=1;fillColor=none;align=left;verticalAlign=middle;spacingTop=-1;spacingLeft=3;spacingRight=3;rotatable=0;labelPosition=right;points=[];portConstraint=eastwest;" vertex="1" parent="re5-jsA7W_6qkic04XHl-134">
          <mxGeometry y="150" width="160" height="8" as="geometry"/>
        </mxCell>
        <mxCell id="re5-jsA7W_6qkic04XHl-137" value="+ use()&#xa;+ add()&#xa;+ update()&#xa;+ delete()" style="text;strokeColor=none;fillColor=none;align=left;verticalAlign=top;spacingLeft=4;spacingRight=4;overflow=hidden;rotatable=0;points=[[0,0.5],[1,0.5]];portConstraint=eastwest;" vertex="1" parent="re5-jsA7W_6qkic04XHl-134">
          <mxGeometry y="158" width="160" height="72" as="geometry"/>
        </mxCell>
        <mxCell id="re5-jsA7W_6qkic04XHl-138" value="AndroidModel" style="swimlane;fontStyle=1;align=center;verticalAlign=top;childLayout=stackLayout;horizontal=1;startSize=26;horizontalStack=0;resizeParent=1;resizeParentMax=0;resizeLast=0;collapsible=1;marginBottom=0;" vertex="1" parent="1">
          <mxGeometry x="1820" y="1440" width="160" height="230" as="geometry"/>
        </mxCell>
        <mxCell id="re5-jsA7W_6qkic04XHl-139" value="+ id&#xa;+ props&#xa;+ code_tree&#xa;+ render_tree&#xa;+ operation_tree&#xa;+ frontend_method&#xa;+ backend_method&#xa;+ dependency" style="text;strokeColor=none;fillColor=none;align=left;verticalAlign=top;spacingLeft=4;spacingRight=4;overflow=hidden;rotatable=0;points=[[0,0.5],[1,0.5]];portConstraint=eastwest;" vertex="1" parent="re5-jsA7W_6qkic04XHl-138">
          <mxGeometry y="26" width="160" height="124" as="geometry"/>
        </mxCell>
        <mxCell id="re5-jsA7W_6qkic04XHl-140" value="" style="line;strokeWidth=1;fillColor=none;align=left;verticalAlign=middle;spacingTop=-1;spacingLeft=3;spacingRight=3;rotatable=0;labelPosition=right;points=[];portConstraint=eastwest;" vertex="1" parent="re5-jsA7W_6qkic04XHl-138">
          <mxGeometry y="150" width="160" height="8" as="geometry"/>
        </mxCell>
        <mxCell id="re5-jsA7W_6qkic04XHl-141" value="+ use()&#xa;+ add()&#xa;+ update()&#xa;+ delete()" style="text;strokeColor=none;fillColor=none;align=left;verticalAlign=top;spacingLeft=4;spacingRight=4;overflow=hidden;rotatable=0;points=[[0,0.5],[1,0.5]];portConstraint=eastwest;" vertex="1" parent="re5-jsA7W_6qkic04XHl-138">
          <mxGeometry y="158" width="160" height="72" as="geometry"/>
        </mxCell>
        <mxCell id="re5-jsA7W_6qkic04XHl-142" value="MiniProgramModel" style="swimlane;fontStyle=1;align=center;verticalAlign=top;childLayout=stackLayout;horizontal=1;startSize=26;horizontalStack=0;resizeParent=1;resizeParentMax=0;resizeLast=0;collapsible=1;marginBottom=0;" vertex="1" parent="1">
          <mxGeometry x="1820" y="640" width="160" height="230" as="geometry"/>
        </mxCell>
        <mxCell id="re5-jsA7W_6qkic04XHl-143" value="+ id&#xa;+ props&#xa;+ code_tree&#xa;+ render_tree&#xa;+ operation_tree&#xa;+ frontend_method&#xa;+ backend_method&#xa;+ dependency" style="text;strokeColor=none;fillColor=none;align=left;verticalAlign=top;spacingLeft=4;spacingRight=4;overflow=hidden;rotatable=0;points=[[0,0.5],[1,0.5]];portConstraint=eastwest;" vertex="1" parent="re5-jsA7W_6qkic04XHl-142">
          <mxGeometry y="26" width="160" height="124" as="geometry"/>
        </mxCell>
        <mxCell id="re5-jsA7W_6qkic04XHl-144" value="" style="line;strokeWidth=1;fillColor=none;align=left;verticalAlign=middle;spacingTop=-1;spacingLeft=3;spacingRight=3;rotatable=0;labelPosition=right;points=[];portConstraint=eastwest;" vertex="1" parent="re5-jsA7W_6qkic04XHl-142">
          <mxGeometry y="150" width="160" height="8" as="geometry"/>
        </mxCell>
        <mxCell id="re5-jsA7W_6qkic04XHl-145" value="+ use()&#xa;+ add()&#xa;+ update()&#xa;+ delete()" style="text;strokeColor=none;fillColor=none;align=left;verticalAlign=top;spacingLeft=4;spacingRight=4;overflow=hidden;rotatable=0;points=[[0,0.5],[1,0.5]];portConstraint=eastwest;" vertex="1" parent="re5-jsA7W_6qkic04XHl-142">
          <mxGeometry y="158" width="160" height="72" as="geometry"/>
        </mxCell>
        <mxCell id="re5-jsA7W_6qkic04XHl-146" style="edgeStyle=none;rounded=0;orthogonalLoop=1;jettySize=auto;html=1;exitX=0;exitY=0.5;exitDx=0;exitDy=0;entryX=1;entryY=0.5;entryDx=0;entryDy=0;startArrow=none;startFill=0;endArrow=block;endFill=0;" edge="1" parent="1" source="re5-jsA7W_6qkic04XHl-143" target="re5-jsA7W_6qkic04XHl-126">
          <mxGeometry relative="1" as="geometry"/>
        </mxCell>
        <mxCell id="re5-jsA7W_6qkic04XHl-147" style="edgeStyle=none;rounded=0;orthogonalLoop=1;jettySize=auto;html=1;exitX=0;exitY=0.5;exitDx=0;exitDy=0;startArrow=none;startFill=0;endArrow=block;endFill=0;" edge="1" parent="1" source="re5-jsA7W_6qkic04XHl-131">
          <mxGeometry relative="1" as="geometry">
            <mxPoint x="1590" y="1270" as="targetPoint"/>
          </mxGeometry>
        </mxCell>
        <mxCell id="re5-jsA7W_6qkic04XHl-148" style="edgeStyle=none;rounded=0;orthogonalLoop=1;jettySize=auto;html=1;exitX=0;exitY=0.5;exitDx=0;exitDy=0;startArrow=none;startFill=0;endArrow=block;endFill=0;" edge="1" parent="1" source="re5-jsA7W_6qkic04XHl-135">
          <mxGeometry relative="1" as="geometry">
            <mxPoint x="1590" y="1270" as="targetPoint"/>
          </mxGeometry>
        </mxCell>
        <mxCell id="re5-jsA7W_6qkic04XHl-149" style="edgeStyle=none;rounded=0;orthogonalLoop=1;jettySize=auto;html=1;exitX=0;exitY=0.5;exitDx=0;exitDy=0;entryX=1;entryY=0.5;entryDx=0;entryDy=0;startArrow=none;startFill=0;endArrow=block;endFill=0;" edge="1" parent="1" source="re5-jsA7W_6qkic04XHl-139" target="re5-jsA7W_6qkic04XHl-126">
          <mxGeometry relative="1" as="geometry"/>
        </mxCell>
      </root>
    </mxGraphModel>
  </diagram>
</mxfile>
